<?xml version="1.0" encoding="UTF-8"?>
<svg width="91px" height="24px" viewBox="0 0 91 24" version="1.1" xmlns="http://www.w3.org/2000/svg" xmlns:xlink="http://www.w3.org/1999/xlink">
    <!-- Generator: sketchtool 60 (101010) - https://sketch.com -->
    <title>7C7035FA-1408-4B9E-AF7B-423C86384073</title>
    <desc>Created with sketchtool.</desc>
    <g id="Page-1" stroke="none" stroke-width="1" fill="none" fill-rule="evenodd">
        <g id="Desktop-x-1680---Signed-Out" transform="translate(-1319.000000, -4000.000000)" fill="#FFFFFF" fill-rule="nonzero">
            <g id="Footer-Links-Collapsed" transform="translate(0.000000, 3815.000000)">
                <g id="Main-Links" transform="translate(270.000000, 185.000000)">
                    <g id="app-store" transform="translate(1049.000000, 0.000000)">
                        <path d="M13.8705376,11.3464464 C13.8705376,9.81274587 14.682957,8.36926305 16.0369892,7.55730396 C15.2245699,6.38447417 13.8705376,5.66273276 12.4262366,5.57251508 C10.8916667,5.39207973 9.44736559,6.47469184 8.63494624,6.47469184 C7.82252688,6.47469184 6.64903226,5.57251508 5.38526882,5.57251508 C3.67016129,5.66273276 2.1355914,6.56490952 1.32317204,8.00839234 C-0.391935484,10.9855757 0.871827957,15.4964595 2.58693548,17.9323367 C3.39935484,19.1051665 4.39231183,20.4584317 5.65607527,20.4584317 C6.91983871,20.368214 7.3711828,19.6464726 8.90575269,19.6464726 C10.4403226,19.6464726 10.8013978,20.4584317 12.1554301,20.4584317 C13.5094624,20.4584317 14.3218817,19.2856019 15.1343011,18.0225544 C15.7661828,17.2105953 16.2175269,16.2182009 16.4883333,15.2258065 C14.8634946,14.6845004 13.8705376,13.0605822 13.8705376,11.3464464 Z M11.3430108,4.03881458 C12.0651613,3.13663782 12.4262366,2.0540257 12.3359677,0.881195909 C11.2527419,0.971413585 10.1695161,1.51271964 9.44736559,2.41489641 C8.72521505,3.22685549 8.36413978,4.30946761 8.4544086,5.4822974 C9.62790323,5.4822974 10.6208602,4.94099135 11.3430108,4.03881458 Z M29.6675806,17.4812484 L25.4249462,17.4812484 L24.4319892,20.5486494 L22.6266129,20.5486494 L26.6887097,9.36165749 L28.494086,9.36165749 L32.5561828,20.5486494 L30.7508065,20.5486494 L29.6675806,17.4812484 Z M25.8762903,16.1279832 L29.3065054,16.1279832 L27.5913978,11.166011 L27.501129,11.166011 L25.8762903,16.1279832 L25.8762903,16.1279832 Z M41.3122581,16.4888539 C41.3122581,19.0149489 39.9582258,20.638867 37.882043,20.638867 C36.7988172,20.7290847 35.8058602,20.097561 35.3545161,19.1953842 L35.3545161,23.2551796 L33.6394086,23.2551796 L33.6394086,12.4290585 L35.2642473,12.4290585 L35.2642473,13.7823236 C35.8058602,12.8801469 36.7988172,12.3388408 37.882043,12.3388408 C39.867957,12.2486231 41.3122581,13.962759 41.3122581,16.4888539 Z M39.5068817,16.4888539 C39.5068817,14.8649357 38.6944624,13.7823236 37.3404301,13.7823236 C36.0766667,13.7823236 35.1739785,14.8649357 35.1739785,16.4888539 C35.1739785,18.1127721 36.0766667,19.1953842 37.3404301,19.1953842 C38.6944624,19.1953842 39.5068817,18.1127721 39.5068817,16.4888539 Z M50.248871,16.4888539 C50.248871,19.0149489 48.8948387,20.638867 46.8186559,20.638867 C45.7354301,20.7290847 44.7424731,20.097561 44.291129,19.1953842 L44.291129,23.2551796 L42.5760215,23.2551796 L42.5760215,12.4290585 L44.2008602,12.4290585 L44.2008602,13.7823236 C44.7424731,12.8801469 45.7354301,12.3388408 46.8186559,12.3388408 C48.8948387,12.2486231 50.248871,13.962759 50.248871,16.4888539 Z M48.5337634,16.4888539 C48.5337634,14.8649357 47.7213441,13.7823236 46.3673118,13.7823236 C45.1035484,13.7823236 44.2008602,14.8649357 44.2008602,16.4888539 C44.2008602,18.1127721 45.1035484,19.1953842 46.3673118,19.1953842 C47.7213441,19.1953842 48.5337634,18.1127721 48.5337634,16.4888539 Z M56.2066129,17.3910307 C56.2968817,18.4736428 57.3801075,19.1953842 58.9146774,19.1953842 C60.3589785,19.1953842 61.3519355,18.4736428 61.3519355,17.4812484 C61.3519355,16.5790716 60.7200538,16.1279832 59.2757527,15.7671125 L57.8314516,15.4062418 C55.7552688,14.9551534 54.8525806,13.962759 54.8525806,12.4290585 C54.8525806,10.5344873 56.5676882,9.18122213 58.9146774,9.18122213 C61.2616667,9.18122213 62.8865054,10.5344873 62.9767742,12.4290585 L61.2616667,12.4290585 C61.1713978,11.3464464 60.2687097,10.624705 58.9146774,10.624705 C57.5606452,10.624705 56.657957,11.3464464 56.657957,12.3388408 C56.657957,13.1507999 57.2898387,13.6018883 58.7341398,13.962759 L59.9979032,14.233412 C62.2546237,14.7747181 63.2475806,15.6768948 63.2475806,17.300813 C63.2475806,19.3758196 61.6227419,20.7290847 58.9146774,20.7290847 C56.3871505,20.7290847 54.7623118,19.4660372 54.672043,17.3910307 L56.2066129,17.3910307 L56.2066129,17.3910307 Z M66.6777957,10.4442696 L66.6777957,12.3388408 L68.2123656,12.3388408 L68.2123656,13.692106 L66.6777957,13.692106 L66.6777957,18.2029898 C66.6777957,18.9247312 66.9486022,19.1953842 67.6707527,19.1953842 L68.2123656,19.1953842 L68.2123656,20.5486494 C67.9415591,20.638867 67.5804839,20.638867 67.3096774,20.638867 C65.6848387,20.638867 65.052957,20.0073433 65.052957,18.4736428 L65.052957,13.7823236 L63.8794624,13.7823236 L63.8794624,12.4290585 L65.052957,12.4290585 L65.052957,10.5344873 L66.6777957,10.5344873 L66.6777957,10.4442696 Z M69.2053226,16.4888539 C69.2053226,13.962759 70.7398925,12.3388408 73.0868817,12.3388408 C75.433871,12.3388408 76.9684409,13.962759 76.9684409,16.4888539 C76.9684409,19.1051665 75.433871,20.638867 73.0868817,20.638867 C70.6496237,20.638867 69.2053226,19.0149489 69.2053226,16.4888539 Z M75.2533333,16.4888539 C75.2533333,14.6845004 74.440914,13.692106 73.0868817,13.692106 C71.7328495,13.692106 70.9204301,14.6845004 70.9204301,16.4888539 C70.9204301,18.2932074 71.7328495,19.2856019 73.0868817,19.2856019 C74.440914,19.2856019 75.2533333,18.2029898 75.2533333,16.4888539 L75.2533333,16.4888539 Z M78.3224731,12.3388408 L79.9473118,12.3388408 L79.9473118,13.7823236 C80.1278495,12.8801469 81.0305376,12.2486231 81.9332258,12.3388408 C82.1137634,12.3388408 82.2943011,12.3388408 82.4748387,12.4290585 L82.4748387,13.962759 C82.2040323,13.8725413 81.9332258,13.8725413 81.7526882,13.8725413 C80.85,13.8725413 80.0375806,14.5942827 80.0375806,15.4964595 L80.0375806,20.638867 L78.3224731,20.638867 L78.3224731,12.3388408 Z M90.237957,18.1127721 C90.0574194,19.5562549 88.6131183,20.638867 86.7174731,20.638867 C84.3704839,20.638867 82.835914,19.0149489 82.835914,16.4888539 C82.835914,13.962759 84.2802151,12.2486231 86.6272043,12.2486231 C88.8839247,12.2486231 90.3282258,13.7823236 90.3282258,16.3084186 L90.3282258,16.8497246 L84.5510215,16.8497246 L84.5510215,16.9399423 C84.4607527,18.1127721 85.273172,19.1051665 86.4466667,19.2856019 L86.7174731,19.2856019 C87.5298925,19.3758196 88.3423118,18.9247312 88.6131183,18.1127721 L90.237957,18.1127721 L90.237957,18.1127721 Z M84.5510215,15.6768948 L88.6131183,15.6768948 C88.7033871,14.5942827 87.8006989,13.692106 86.7174731,13.6018883 L86.5369355,13.6018883 C85.4537097,13.6018883 84.5510215,14.504065 84.5510215,15.6768948 Z M25.6054839,0.881195909 C26.9595161,0.790978232 28.0427419,1.78337267 28.1330108,3.04642014 L28.1330108,3.49750852 C28.1330108,5.21164437 27.2303226,6.20403881 25.6054839,6.20403881 L23.6195699,6.20403881 L23.6195699,0.790978232 L25.6054839,0.881195909 Z M24.5222581,5.57251508 L25.5152151,5.57251508 C26.4179032,5.66273276 27.2303226,4.94099135 27.3205914,3.94859691 L27.3205914,3.5877262 C27.4108602,2.68554944 26.7789785,1.78337267 25.8762903,1.693155 L24.5222581,1.693155 L24.5222581,5.57251508 Z M29.1259677,4.21924993 C29.0356989,3.13663782 29.8481183,2.23446105 30.8410753,2.14424338 C31.9243011,2.0540257 32.8269892,2.86598479 32.9172581,3.85837923 L32.9172581,4.21924993 C33.0075269,5.30186205 32.2853763,6.20403881 31.2021505,6.29425649 C30.1189247,6.38447417 29.2162366,5.66273276 29.1259677,4.58012064 L29.1259677,4.21924993 Z M32.1048387,4.21924993 C32.1048387,3.31707317 31.7437634,2.86598479 31.0216129,2.86598479 C30.2994624,2.86598479 29.9383871,3.40729085 29.9383871,4.21924993 C29.9383871,5.1214267 30.2994624,5.66273276 31.0216129,5.66273276 C31.7437634,5.66273276 32.1048387,5.1214267 32.1048387,4.21924993 Z M38.0625806,6.29425649 L37.2501613,6.29425649 L36.4377419,3.31707317 L36.3474731,3.31707317 L35.5350538,6.29425649 L34.7226344,6.29425649 L33.6394086,2.23446105 L34.451828,2.23446105 L35.1739785,5.30186205 L35.2642473,5.30186205 L36.0766667,2.23446105 L36.889086,2.23446105 L37.7015054,5.30186205 L37.7917742,5.30186205 L38.5139247,2.23446105 L39.3263441,2.23446105 L38.0625806,6.29425649 L38.0625806,6.29425649 Z M40.1387634,2.23446105 L40.9511828,2.23446105 L40.9511828,2.86598479 L41.0414516,2.86598479 C41.2219892,2.41489641 41.7636022,2.14424338 42.2149462,2.14424338 C42.9370968,2.0540257 43.5689785,2.59533176 43.6592473,3.40729085 L43.6592473,6.29425649 L42.846828,6.29425649 L42.846828,3.85837923 C42.846828,3.22685549 42.5760215,2.86598479 41.9441398,2.86598479 C41.4025269,2.86598479 40.9511828,3.22685549 40.9511828,3.76816155 L40.9511828,6.29425649 L40.1387634,6.29425649 L40.1387634,2.23446105 Z M44.8327419,0.61054288 L45.6451613,0.61054288 L45.6451613,6.29425649 L44.8327419,6.29425649 L44.8327419,0.61054288 L44.8327419,0.61054288 Z M46.7283871,4.21924993 C46.6381183,3.13664604 47.3602688,2.23446105 48.4434946,2.14424338 C49.5267204,2.0540257 50.4294086,2.77576711 50.5196774,3.85837923 L50.5196774,4.21924993 C50.6099462,5.30186205 49.8877957,6.20403881 48.8045699,6.29425649 C47.7213441,6.38447417 46.8186559,5.66273276 46.7283871,4.58012064 L46.7283871,4.21924993 Z M49.7975269,4.21924993 C49.7975269,3.31707317 49.4364516,2.86598479 48.7143011,2.86598479 C47.9921505,2.86598479 47.6310753,3.40729085 47.6310753,4.21924993 C47.6310753,5.1214267 47.9921505,5.66273276 48.7143011,5.66273276 C49.3461828,5.66273276 49.7975269,5.1214267 49.7975269,4.21924993 Z M51.4223656,5.1214267 C51.4223656,4.39968529 51.9639785,3.94859691 52.9569355,3.94859691 L54.0401613,3.85837923 L54.0401613,3.49750852 C54.0401613,3.04642014 53.7693548,2.86598479 53.2277419,2.86598479 C52.7763978,2.86598479 52.5055914,3.04642014 52.4153226,3.31707317 L51.6029032,3.31707317 C51.693172,2.59533176 52.3250538,2.14424338 53.2277419,2.14424338 C54.2206989,2.14424338 54.8525806,2.68554944 54.8525806,3.49750852 L54.8525806,6.29425649 L54.0401613,6.29425649 L54.0401613,5.75295043 L53.9498925,5.75295043 C53.679086,6.20403881 53.2277419,6.38447417 52.686129,6.38447417 C52.0542473,6.47469184 51.4223656,5.93338579 51.3320968,5.30186205 C51.4223656,5.21164437 51.4223656,5.21164437 51.4223656,5.1214267 L51.4223656,5.1214267 Z M54.0401613,4.76055599 L54.0401613,4.39968529 L53.0472043,4.48990296 C52.5055914,4.48990296 52.2347849,4.76055599 52.2347849,5.03120902 C52.2347849,5.39207973 52.5958602,5.57251508 52.9569355,5.57251508 C53.4985484,5.75295043 53.9498925,5.39207973 54.0401613,4.76055599 C54.0401613,4.85077367 54.0401613,4.85077367 54.0401613,4.76055599 L54.0401613,4.76055599 Z M55.8455376,4.21924993 C55.8455376,2.95620247 56.4774194,2.14424338 57.5606452,2.14424338 C58.1022581,2.14424338 58.5536022,2.41489641 58.8244086,2.86598479 L58.9146774,2.86598479 L58.9146774,0.61054288 L59.7270968,0.61054288 L59.7270968,6.29425649 L58.9146774,6.29425649 L58.9146774,5.66273276 L58.8244086,5.66273276 C58.5536022,6.11382114 58.1022581,6.38447417 57.5606452,6.38447417 C56.5676882,6.38447417 55.8455376,5.57251508 55.8455376,4.21924993 L55.8455376,4.21924993 Z M56.7482258,4.21924993 C56.7482258,5.1214267 57.1093011,5.57251508 57.8314516,5.57251508 C58.5536022,5.57251508 58.9146774,5.03120902 58.9146774,4.21924993 C58.9146774,3.40729085 58.4633333,2.86598479 57.8314516,2.86598479 C57.1093011,2.86598479 56.7482258,3.40729085 56.7482258,4.21924993 Z M62.9767742,4.21924993 C62.8865054,3.13664604 63.6086559,2.23446105 64.6918817,2.14424338 C65.7751075,2.0540257 66.6777957,2.77576711 66.7680645,3.85837923 L66.7680645,4.21924993 C66.8583333,5.30186205 66.1361828,6.20403881 65.052957,6.29425649 C63.9697312,6.38447417 63.067043,5.66273276 62.9767742,4.58012064 L62.9767742,4.21924993 Z M66.045914,4.21924993 C66.045914,3.31707317 65.6848387,2.86598479 64.9626882,2.86598479 C64.2405376,2.86598479 63.8794624,3.40729085 63.8794624,4.21924993 C63.8794624,5.1214267 64.2405376,5.66273276 64.9626882,5.66273276 C65.5945699,5.66273276 66.045914,5.1214267 66.045914,4.21924993 Z M67.9415591,2.23446105 L68.7539785,2.23446105 L68.7539785,2.86598479 L68.8442473,2.86598479 C69.0247849,2.41489641 69.5663978,2.14424338 70.0177419,2.14424338 C70.7398925,2.0540257 71.3717742,2.59533176 71.462043,3.40729085 L71.462043,6.29425649 L70.6496237,6.29425649 L70.6496237,3.85837923 C70.6496237,3.22685549 70.3788172,2.86598479 69.7469355,2.86598479 C69.2053226,2.86598479 68.7539785,3.22685549 68.7539785,3.76816155 L68.7539785,6.29425649 L67.9415591,6.29425649 L67.9415591,2.23446105 L67.9415591,2.23446105 Z M75.8852151,1.24206661 L75.8852151,2.23446105 L76.7879032,2.23446105 L76.7879032,2.95620247 L75.8852151,2.95620247 L75.8852151,5.03120902 C75.8852151,5.4822974 76.0657527,5.66273276 76.426828,5.66273276 L76.6976344,5.66273276 L76.6976344,6.29425649 L76.2462903,6.29425649 C75.3436022,6.29425649 74.9825269,6.02360346 74.9825269,5.21164437 L74.9825269,2.95620247 L74.3506452,2.95620247 L74.3506452,2.32467873 L74.9825269,2.32467873 L74.9825269,1.24206661 L75.8852151,1.24206661 Z M77.871129,0.61054288 L78.6835484,0.61054288 L78.6835484,2.86598479 L78.7738172,2.86598479 C78.9543548,2.41489641 79.4959677,2.0540257 80.0375806,2.14424338 C80.7597312,2.14424338 81.3916129,2.68554944 81.4818817,3.40729085 L81.4818817,6.29425649 L80.6694624,6.29425649 L80.6694624,3.85837923 C80.6694624,3.22685549 80.3986559,2.86598479 79.7667742,2.86598479 C79.2251613,2.86598479 78.7738172,3.22685549 78.7738172,3.76816155 L78.7738172,6.29425649 L77.9613978,6.29425649 L77.9613978,0.61054288 L77.871129,0.61054288 Z M86.0855914,5.21164437 C85.9050538,5.93338579 85.0926344,6.47469184 84.3704839,6.38447417 C83.3775269,6.38447417 82.4748387,5.57251508 82.4748387,4.58012064 L82.4748387,4.30946761 C82.2943011,3.31707317 83.0164516,2.32467873 84.0996774,2.23446105 L84.3704839,2.23446105 C85.5439785,2.23446105 86.1758602,3.04642014 86.1758602,4.30946761 L86.1758602,4.58012064 L83.2872581,4.58012064 L83.2872581,4.67033832 C83.1969892,5.30186205 83.6483333,5.75295043 84.2802151,5.84316811 L84.3704839,5.84316811 C84.7315591,5.93338579 85.1829032,5.66273276 85.3634409,5.39207973 L86.0855914,5.39207973 L86.0855914,5.21164437 Z M83.1969892,3.85837923 L85.273172,3.85837923 C85.273172,3.31707317 84.9120968,2.86598479 84.3704839,2.77576711 L84.2802151,2.77576711 C83.7386022,2.86598479 83.1969892,3.31707317 83.1969892,3.85837923 Z" id="Shape"></path>
                    </g>
                </g>
            </g>
        </g>
    </g>
</svg>