<?xml version="1.0" encoding="UTF-8"?>
<svg width="102px" height="25px" viewBox="0 0 102 25" version="1.1" xmlns="http://www.w3.org/2000/svg" xmlns:xlink="http://www.w3.org/1999/xlink">
    <!-- Generator: sketchtool 60 (101010) - https://sketch.com -->
    <title>B056D188-39F1-4694-A8C1-EF861CEBD4B5</title>
    <desc>Created with sketchtool.</desc>
    <defs>
        <linearGradient x1="61.0260899%" y1="4.82%" x2="26.077862%" y2="71.948%" id="linearGradient-1">
            <stop stop-color="#00A0FF" offset="0%"></stop>
            <stop stop-color="#00A1FF" offset="0.7%"></stop>
            <stop stop-color="#00BEFF" offset="26%"></stop>
            <stop stop-color="#00D2FF" offset="51.2%"></stop>
            <stop stop-color="#00DFFF" offset="76%"></stop>
            <stop stop-color="#00E3FF" offset="100%"></stop>
        </linearGradient>
        <linearGradient x1="107.724138%" y1="50%" x2="-130.669951%" y2="50%" id="linearGradient-2">
            <stop stop-color="#FFE000" offset="0%"></stop>
            <stop stop-color="#FFBD00" offset="40.9%"></stop>
            <stop stop-color="#FFA500" offset="77.5%"></stop>
            <stop stop-color="#FF9C00" offset="100%"></stop>
        </linearGradient>
        <linearGradient x1="86.3233533%" y1="30.8002314%" x2="-49.9520958%" y2="135.854275%" id="linearGradient-3">
            <stop stop-color="#FF3A44" offset="0%"></stop>
            <stop stop-color="#C31162" offset="100%"></stop>
        </linearGradient>
        <linearGradient x1="-18.7964072%" y1="-11.4480178%" x2="42.0598802%" y2="35.2480448%" id="linearGradient-4">
            <stop stop-color="#32A071" offset="0%"></stop>
            <stop stop-color="#2DA771" offset="6.9%"></stop>
            <stop stop-color="#15CF74" offset="47.6%"></stop>
            <stop stop-color="#06E775" offset="80.1%"></stop>
            <stop stop-color="#00F076" offset="100%"></stop>
        </linearGradient>
    </defs>
    <g id="Page-1" stroke="none" stroke-width="1" fill="none" fill-rule="evenodd">
        <g id="Desktop-x-1680---Signed-Out" transform="translate(-1177.000000, -3999.000000)" fill-rule="nonzero">
            <g id="Footer-Links-Collapsed" transform="translate(0.000000, 3815.000000)">
                <g id="Main-Links" transform="translate(270.000000, 185.000000)">
                    <g id="google-play" transform="translate(907.000000, 0.000000)">
                        <path d="M33.2003125,2.91463415 C33.2003125,3.61382114 33.0254167,4.22560976 32.5881771,4.66260163 C32.0634896,5.18699187 31.4513542,5.44918699 30.6643229,5.44918699 C29.8772917,5.44918699 29.2651562,5.18699187 28.7404687,4.66260163 C28.2157812,4.13821138 27.9534375,3.52642276 27.9534375,2.7398374 C27.9534375,1.95325203 28.2157812,1.34146341 28.7404687,0.817073171 C29.2651562,0.292682927 29.8772917,0.0304878049 30.6643229,0.0304878049 C31.0141146,0.0304878049 31.3639062,0.117886179 31.7136979,0.292682927 C32.0634896,0.467479675 32.3258333,0.642276423 32.5007292,0.904471545 L32.0634896,1.34146341 C31.7136979,0.904471545 31.2764583,0.729674797 30.6643229,0.729674797 C30.1396354,0.729674797 29.6149479,0.904471545 29.2651562,1.34146341 C28.8279167,1.69105691 28.6530208,2.21544715 28.6530208,2.82723577 C28.6530208,3.43902439 28.8279167,3.96341463 29.2651562,4.31300813 C29.7023958,4.66260163 30.1396354,4.92479675 30.6643229,4.92479675 C31.2764583,4.92479675 31.7136979,4.75 32.1509375,4.31300813 C32.4132812,4.05081301 32.5881771,3.70121951 32.5881771,3.26422764 L30.6643229,3.26422764 L30.6643229,2.56504065 L33.2003125,2.56504065 L33.2003125,2.91463415 L33.2003125,2.91463415 Z M37.2229167,0.729674797 L34.8618229,0.729674797 L34.8618229,2.3902439 L37.0480208,2.3902439 L37.0480208,3.00203252 L34.8618229,3.00203252 L34.8618229,4.66260163 L37.2229167,4.66260163 L37.2229167,5.36178862 L34.1622396,5.36178862 L34.1622396,0.117886179 L37.2229167,0.117886179 L37.2229167,0.729674797 Z M40.1086979,5.36178862 L39.4091146,5.36178862 L39.4091146,0.729674797 L37.9225,0.729674797 L37.9225,0.117886179 L41.5953125,0.117886179 L41.5953125,0.729674797 L40.1086979,0.729674797 L40.1086979,5.36178862 Z M44.1313021,5.36178862 L44.1313021,0.117886179 L44.8308854,0.117886179 L44.8308854,5.36178862 L44.1313021,5.36178862 Z M47.8041146,5.36178862 L47.1045312,5.36178862 L47.1045312,0.729674797 L45.6179167,0.729674797 L45.6179167,0.117886179 L49.2032812,0.117886179 L49.2032812,0.729674797 L47.7166667,0.729674797 L47.8041146,5.36178862 Z M56.1116667,4.66260163 C55.5869792,5.18699187 54.9748437,5.44918699 54.1878125,5.44918699 C53.4007812,5.44918699 52.7886458,5.18699187 52.2639583,4.66260163 C51.7392708,4.13821138 51.4769271,3.52642276 51.4769271,2.7398374 C51.4769271,1.95325203 51.7392708,1.34146341 52.2639583,0.817073171 C52.7886458,0.292682927 53.4007812,0.0304878049 54.1878125,0.0304878049 C54.9748437,0.0304878049 55.5869792,0.292682927 56.1116667,0.817073171 C56.6363542,1.34146341 56.8986979,1.95325203 56.8986979,2.7398374 C56.8986979,3.52642276 56.6363542,4.13821138 56.1116667,4.66260163 Z M52.7886458,4.22560976 C53.1384375,4.57520325 53.663125,4.83739837 54.1878125,4.83739837 C54.7125,4.83739837 55.2371875,4.66260163 55.5869792,4.22560976 C55.9367708,3.87601626 56.1991146,3.35162602 56.1991146,2.7398374 C56.1991146,2.12804878 56.0242187,1.60365854 55.5869792,1.25406504 C55.2371875,0.904471545 54.7125,0.642276423 54.1878125,0.642276423 C53.663125,0.642276423 53.1384375,0.817073171 52.7886458,1.25406504 C52.4388542,1.60365854 52.1765104,2.12804878 52.1765104,2.7398374 C52.1765104,3.35162602 52.3514062,3.87601626 52.7886458,4.22560976 Z M57.860625,5.36178862 L57.860625,0.117886179 L58.6476562,0.117886179 L61.1836458,4.22560976 L61.1836458,0.117886179 L61.8832292,0.117886179 L61.8832292,5.36178862 L61.1836458,5.36178862 L58.4727604,1.07926829 L58.4727604,5.36178862 L57.860625,5.36178862 L57.860625,5.36178862 Z" id="Shape" stroke="#FFFFFF" stroke-width="0.2" fill="#FFFFFF"></path>
                        <path d="M51.3020312,13.0528455 C49.2032812,13.0528455 47.5417708,14.6260163 47.5417708,16.8109756 C47.5417708,18.9085366 49.2032812,20.5691057 51.3020312,20.5691057 C53.4007812,20.5691057 55.0622917,18.995935 55.0622917,16.8109756 C55.0622917,14.5386179 53.4007812,13.0528455 51.3020312,13.0528455 Z M51.3020312,18.995935 C50.1652083,18.995935 49.2032812,18.0345528 49.2032812,16.7235772 C49.2032812,15.4126016 50.1652083,14.4512195 51.3020312,14.4512195 C52.4388542,14.4512195 53.4007812,15.3252033 53.4007812,16.7235772 C53.4007812,18.0345528 52.4388542,18.995935 51.3020312,18.995935 Z M43.169375,13.0528455 C41.070625,13.0528455 39.4091146,14.6260163 39.4091146,16.8109756 C39.4091146,18.9085366 41.070625,20.5691057 43.169375,20.5691057 C45.268125,20.5691057 46.9296354,18.995935 46.9296354,16.8109756 C46.9296354,14.5386179 45.268125,13.0528455 43.169375,13.0528455 Z M43.169375,18.995935 C42.0325521,18.995935 41.070625,18.0345528 41.070625,16.7235772 C41.070625,15.4126016 42.0325521,14.4512195 43.169375,14.4512195 C44.3061979,14.4512195 45.268125,15.3252033 45.268125,16.7235772 C45.268125,18.0345528 44.3061979,18.995935 43.169375,18.995935 Z M33.4626562,14.1890244 L33.4626562,15.7621951 L37.2229167,15.7621951 C37.1354687,16.6361789 36.7856771,17.3353659 36.3484375,17.7723577 C35.82375,18.296748 34.9492708,18.9085366 33.4626562,18.9085366 C31.1015625,18.9085366 29.3526042,17.0731707 29.3526042,14.7134146 C29.3526042,12.3536585 31.1890104,10.5182927 33.4626562,10.5182927 C34.6869271,10.5182927 35.6488542,11.0426829 36.3484375,11.6544715 L37.4852604,10.5182927 C36.5233333,9.64430894 35.2990625,8.94512195 33.5501042,8.94512195 C30.4019792,8.94512195 27.6910937,11.5670732 27.6910937,14.7134146 C27.6910937,17.8597561 30.4019792,20.4817073 33.5501042,20.4817073 C35.2990625,20.4817073 36.5233333,19.9573171 37.5727083,18.8211382 C38.6220833,17.7723577 38.971875,16.2865854 38.971875,15.1504065 C38.971875,14.800813 38.971875,14.4512195 38.8844271,14.1890244 L33.4626562,14.1890244 L33.4626562,14.1890244 Z M73.1640104,15.4126016 C72.8142187,14.5386179 71.9397396,13.0528455 70.0158854,13.0528455 C68.0920312,13.0528455 66.5179687,14.5386179 66.5179687,16.8109756 C66.5179687,18.9085366 68.0920312,20.5691057 70.1907812,20.5691057 C71.8522917,20.5691057 72.9016667,19.5203252 73.2514583,18.9085366 L72.0271875,18.0345528 C71.5899479,18.6463415 71.0652604,19.0833333 70.1907812,19.0833333 C69.3163021,19.0833333 68.7916146,18.7337398 68.354375,17.9471545 L73.3389062,15.8495935 L73.1640104,15.4126016 L73.1640104,15.4126016 Z M68.0920312,16.6361789 C68.0920312,15.2378049 69.2288542,14.4512195 70.0158854,14.4512195 C70.6280208,14.4512195 71.2401562,14.800813 71.4150521,15.2378049 L68.0920312,16.6361789 Z M63.9819792,20.2195122 L65.6434896,20.2195122 L65.6434896,9.29471545 L63.9819792,9.29471545 L63.9819792,20.2195122 Z M61.3585417,13.8394309 C60.9213021,13.402439 60.2217187,12.9654472 59.3472396,12.9654472 C57.5108333,12.9654472 55.761875,14.6260163 55.761875,16.7235772 C55.761875,18.8211382 57.4233854,20.3943089 59.3472396,20.3943089 C60.2217187,20.3943089 60.9213021,19.9573171 61.2710937,19.5203252 L61.3585417,19.5203252 L61.3585417,20.0447154 C61.3585417,21.4430894 60.5715104,22.2296748 59.3472396,22.2296748 C58.3853125,22.2296748 57.6857292,21.5304878 57.5108333,20.9186992 L56.1116667,21.5304878 C56.5489062,22.4918699 57.5982812,23.7154472 59.4346875,23.7154472 C61.3585417,23.7154472 62.9326042,22.5792683 62.9326042,19.8699187 L62.9326042,13.2276423 L61.3585417,13.2276423 L61.3585417,13.8394309 L61.3585417,13.8394309 Z M59.4346875,18.995935 C58.2978646,18.995935 57.3359375,18.0345528 57.3359375,16.7235772 C57.3359375,15.4126016 58.2978646,14.4512195 59.4346875,14.4512195 C60.5715104,14.4512195 61.4459896,15.4126016 61.4459896,16.7235772 C61.4459896,18.0345528 60.5715104,18.995935 59.4346875,18.995935 Z M80.7719792,9.29471545 L76.8368229,9.29471545 L76.8368229,20.2195122 L78.4983333,20.2195122 L78.4983333,16.1117886 L80.7719792,16.1117886 C82.6083854,16.1117886 84.3573437,14.800813 84.3573437,12.703252 C84.3573437,10.6056911 82.6083854,9.29471545 80.7719792,9.29471545 L80.7719792,9.29471545 Z M80.8594271,14.5386179 L78.4983333,14.5386179 L78.4983333,10.7804878 L80.8594271,10.7804878 C82.0836979,10.7804878 82.7832812,11.8292683 82.7832812,12.6158537 C82.6958333,13.5772358 81.99625,14.5386179 80.8594271,14.5386179 Z M90.9159375,12.9654472 C89.6916667,12.9654472 88.4673958,13.4898374 88.0301562,14.6260163 L89.5167708,15.2378049 C89.8665625,14.6260163 90.39125,14.4512195 91.0033854,14.4512195 C91.8778646,14.4512195 92.6648958,14.9756098 92.7523437,15.8495935 L92.7523437,15.9369919 C92.49,15.7621951 91.7904167,15.5 91.0908333,15.5 C89.5167708,15.5 87.9427083,16.3739837 87.9427083,17.9471545 C87.9427083,19.4329268 89.2544271,20.3943089 90.6535937,20.3943089 C91.7904167,20.3943089 92.3151042,19.8699187 92.7523437,19.3455285 L92.8397917,19.3455285 L92.8397917,20.2195122 L94.4138542,20.2195122 L94.4138542,16.0243902 C94.2389583,14.101626 92.7523437,12.9654472 90.9159375,12.9654472 L90.9159375,12.9654472 Z M90.7410417,18.995935 C90.2163542,18.995935 89.4293229,18.7337398 89.4293229,18.0345528 C89.4293229,17.1605691 90.39125,16.898374 91.1782812,16.898374 C91.8778646,16.898374 92.2276562,17.0731707 92.6648958,17.2479675 C92.49,18.296748 91.6155208,18.995935 90.7410417,18.995935 L90.7410417,18.995935 Z M99.9230729,13.2276423 L98.0866667,17.9471545 L97.9992187,17.9471545 L96.0753646,13.2276423 L94.3264062,13.2276423 L97.2121875,19.8699187 L95.5506771,23.5406504 L97.2121875,23.5406504 L101.672031,13.2276423 L99.9230729,13.2276423 L99.9230729,13.2276423 Z M85.2318229,20.2195122 L86.8933333,20.2195122 L86.8933333,9.29471545 L85.2318229,9.29471545 L85.2318229,20.2195122 Z" id="Shape" fill="#FFFFFF"></path>
                        <path d="M0.844583333,0.554878049 C0.582239583,0.817073171 0.494791667,1.25406504 0.494791667,1.77845528 L0.494791667,21.0934959 C0.494791667,21.6178862 0.6696875,22.054878 0.93203125,22.3170732 L1.01947917,22.4044715 L11.8630208,11.5670732 L11.8630208,11.3922764 L0.844583333,0.554878049 Z" id="Path" fill="url(#linearGradient-1)"></path>
                        <path d="M15.3609375,15.2378049 L11.7755729,11.6544715 L11.7755729,11.3922764 L15.3609375,7.80894309 L15.4483854,7.89634146 L19.7333333,10.3434959 C20.9576042,11.0426829 20.9576042,12.1788618 19.7333333,12.8780488 L15.3609375,15.2378049 Z" id="Path" fill="url(#linearGradient-2)"></path>
                        <path d="M15.4483854,15.1504065 L11.7755729,11.4796748 L0.844583333,22.4044715 C1.28182292,22.8414634 1.89395833,22.8414634 2.68098958,22.4918699 L15.4483854,15.1504065" id="Path" fill="url(#linearGradient-3)"></path>
                        <path d="M15.4483854,7.80894309 L2.68098958,0.554878049 C1.89395833,0.117886179 1.28182292,0.205284553 0.844583333,0.642276423 L11.7755729,11.4796748 L15.4483854,7.80894309 L15.4483854,7.80894309 Z" id="Path" fill="url(#linearGradient-4)"></path>
                        <path d="M15.3609375,15.0630081 L2.68098958,22.2296748 C1.98140625,22.6666667 1.36927083,22.5792683 0.93203125,22.2296748 L0.844583333,22.3170732 L0.93203125,22.4044715 C1.36927083,22.754065 1.98140625,22.8414634 2.68098958,22.4044715 L15.3609375,15.0630081 Z" id="Path" fill="#000000" opacity="0.2"></path>
                        <path d="M0.844583333,22.2296748 C0.582239583,21.9674797 0.494791667,21.5304878 0.494791667,21.0060976 L0.494791667,21.0934959 C0.494791667,21.6178862 0.6696875,22.054878 0.93203125,22.3170732 L0.93203125,22.2296748 L0.844583333,22.2296748 Z M19.7333333,12.6158537 L15.3609375,15.0630081 L15.4483854,15.1504065 L19.7333333,12.703252 C20.3454688,12.3536585 20.6078125,11.9166667 20.6078125,11.4796748 C20.6078125,11.9166667 20.2580208,12.2662602 19.7333333,12.6158537 L19.7333333,12.6158537 Z" id="Shape" fill="#000000" opacity="0.12"></path>
                        <path d="M2.68098958,0.642276423 L19.7333333,10.3434959 C20.2580208,10.6930894 20.6078125,11.0426829 20.6078125,11.4796748 C20.6078125,11.0426829 20.3454688,10.6056911 19.7333333,10.2560976 L2.68098958,0.642276423 C1.45671875,-0.144308943 0.494791667,0.380081301 0.494791667,1.77845528 L0.494791667,1.86585366 C0.494791667,0.554878049 1.45671875,-0.0569105691 2.68098958,0.642276423 Z" id="Path" fill="#FFFFFF" opacity="0.25"></path>
                    </g>
                </g>
            </g>
        </g>
    </g>
</svg>